<svg width="165" height="137" viewBox="0 0 165 137" fill="none" xmlns="http://www.w3.org/2000/svg">
<path d="M81.1963 122.888C111.419 122.888 135.919 98.9633 135.919 69.4502C135.919 39.9372 111.419 16.0122 81.1963 16.0122C50.9741 16.0122 26.4741 39.9372 26.4741 69.4502C26.4741 98.9633 50.9741 122.888 81.1963 122.888Z" fill="#C4DBF7"/>
<path d="M119.883 99.7734H107.666C107.921 99.4006 108.048 98.9035 108.175 98.4064L112.12 70.5689C112.247 69.3261 111.866 67.9591 111.102 66.9649C110.211 65.9707 108.939 65.4736 107.666 65.4736H53.962C52.6893 65.4736 51.4167 66.095 50.5259 66.9649C49.6351 67.9591 49.2533 69.2019 49.5078 70.5689L53.4529 98.4064C53.5802 98.9035 53.7074 99.4006 53.962 99.7734H41.7449C40.9813 99.7734 40.4723 100.395 40.4723 101.016V105.987C40.4723 106.608 40.9813 107.23 41.7449 107.23H119.883C120.519 107.23 121.156 106.608 121.156 105.987V101.016C121.156 100.27 120.519 99.7734 119.883 99.7734ZM80.814 89.0858C76.9962 89.0858 74.0692 86.7246 74.0692 83.8663C74.0692 81.0079 77.1234 78.6467 80.814 78.6467C84.5046 78.6467 87.5588 81.0079 87.5588 83.8663C87.5588 86.7246 84.5046 89.0858 80.814 89.0858Z" fill="#1F64FF"/>
<path d="M92.5232 55.4081C92.1414 55.2839 91.6323 55.4081 91.2505 55.6567C88.4508 58.2664 84.633 59.6335 80.8152 59.6335C76.9973 59.6335 73.1795 58.2664 70.3798 55.6567C69.998 55.4081 69.4889 55.2839 69.1071 55.4081C64.3985 57.0237 59.9444 59.6335 56.2538 62.9889H105.377C101.686 59.6335 97.3591 57.0237 92.5232 55.4081Z" fill="#1F64FF"/>
<path d="M80.8137 55.0343C89.037 55.0343 95.7033 48.5245 95.7033 40.4942C95.7033 32.4639 89.037 25.9541 80.8137 25.9541C72.5905 25.9541 65.9242 32.4639 65.9242 40.4942C65.9242 48.5245 72.5905 55.0343 80.8137 55.0343Z" fill="#1F64FF"/>
<path d="M152.696 81.728H163.918" stroke="#1F64FF" stroke-width="1.5" stroke-miterlimit="10" stroke-linecap="round" stroke-linejoin="round"/>
<path d="M1.38135 32.1235H12.6027" stroke="#1F64FF" stroke-width="1.5" stroke-miterlimit="10" stroke-linecap="round" stroke-linejoin="round"/>
<path d="M91.3789 135.315H97.7415" stroke="#1F64FF" stroke-width="1.5" stroke-miterlimit="10" stroke-linecap="round" stroke-linejoin="round"/>
<path d="M6.11292 98.0332H12.5912" stroke="#1F64FF" stroke-width="1.5" stroke-miterlimit="10" stroke-linecap="round" stroke-linejoin="round"/>
<path d="M38.2845 8.45867L45.457 1.51855" stroke="#1F64FF" stroke-width="1.5" stroke-miterlimit="10" stroke-linecap="round" stroke-linejoin="round"/>
<path d="M45.457 8.45867L38.2845 1.51855" stroke="#1F64FF" stroke-width="1.5" stroke-miterlimit="10" stroke-linecap="round" stroke-linejoin="round"/>
<path d="M142.747 121.093L149.804 114.153" stroke="#1F64FF" stroke-width="1.5" stroke-miterlimit="10" stroke-linecap="round" stroke-linejoin="round"/>
<path d="M149.804 121.093L142.747 114.153" stroke="#1F64FF" stroke-width="1.5" stroke-miterlimit="10" stroke-linecap="round" stroke-linejoin="round"/>
<path d="M128.286 17.3331L133.492 12.2134" stroke="#1F64FF" stroke-width="1.5" stroke-miterlimit="10" stroke-linecap="round" stroke-linejoin="round"/>
<path d="M133.492 27.3331L128.286 22.2134" stroke="#1F64FF" stroke-width="1.5" stroke-miterlimit="10" stroke-linecap="round" stroke-linejoin="round"/>
</svg>
