<svg width="194" height="168" viewBox="0 0 194 168" fill="none" xmlns="http://www.w3.org/2000/svg">
<path d="M96 167H103.493" stroke="#1F64FF" stroke-width="1.5" stroke-miterlimit="10" stroke-linecap="round" stroke-linejoin="round"/>
<path d="M164 149.173L172.31 141" stroke="#1F64FF" stroke-width="1.5" stroke-miterlimit="10" stroke-linecap="round" stroke-linejoin="round"/>
<path d="M172.31 149.173L164 141" stroke="#1F64FF" stroke-width="1.5" stroke-miterlimit="10" stroke-linecap="round" stroke-linejoin="round"/>
<path d="M156.127 20.8844L149.996 14.8555" stroke="#1F64FF" stroke-width="1.5" stroke-miterlimit="10" stroke-linecap="round" stroke-linejoin="round"/>
<path d="M99.4858 143.923C135.075 143.923 163.926 115.749 163.926 80.995C163.926 46.2408 135.075 18.0669 99.4858 18.0669C63.8963 18.0669 35.0454 46.2408 35.0454 80.995C35.0454 115.749 63.8963 143.923 99.4858 143.923Z" fill="#C4DBF7"/>
<path d="M80.5151 69.3001C71.8831 69.3001 64.8696 62.4287 64.8696 53.9717C64.8696 45.4265 71.8831 38.5552 80.5151 38.5552C89.1472 38.5552 96.1607 45.4265 96.1607 53.8836C96.2506 62.3406 89.2371 69.3001 80.5151 69.3001Z" fill="#1F64FF"/>
<path d="M97.5078 110.264L113.513 75.9954C113.963 74.9382 115.221 74.4978 116.3 75.0263C117.379 75.4668 117.829 76.7001 117.29 77.7573L102.094 110.352H144.444C144.444 110.352 138.51 83.3072 123.853 62.0765C119.717 55.7337 108.657 49.7433 101.015 58.817C94.8103 66.2169 90.3145 78.1096 87.1674 88.5048L86.9875 88.7691L78.895 73.6168C77.0068 70.0931 72.6009 68.7716 69.0941 70.6216C65.4974 72.4716 64.1487 76.7001 66.0369 80.2239L74.3992 95.9928L61.8108 95.8166C57.7646 95.8166 54.5276 98.988 54.5276 102.952C54.5276 106.916 57.7646 110.088 61.8108 110.088L97.5078 110.264Z" fill="#1F64FF"/>
<path d="M179.185 95.4541H192.399" stroke="#1F64FF" stroke-width="1.5" stroke-miterlimit="10" stroke-linecap="round" stroke-linejoin="round"/>
<path d="M1 37.0405H14.2141" stroke="#1F64FF" stroke-width="1.5" stroke-miterlimit="10" stroke-linecap="round" stroke-linejoin="round"/>
<path d="M6.5741 114.654H14.2029" stroke="#1F64FF" stroke-width="1.5" stroke-miterlimit="10" stroke-linecap="round" stroke-linejoin="round"/>
<path d="M44.4568 9.17262L52.9029 1" stroke="#1F64FF" stroke-width="1.5" stroke-miterlimit="10" stroke-linecap="round" stroke-linejoin="round"/>
<path d="M52.9029 9.17262L44.4568 1" stroke="#1F64FF" stroke-width="1.5" stroke-miterlimit="10" stroke-linecap="round" stroke-linejoin="round"/>
<path d="M33.5583 156.28L37.1003 159.763" stroke="#1F64FF" stroke-width="1.5" stroke-miterlimit="10" stroke-linecap="round" stroke-linejoin="round"/>
<path d="M33.5583 159.763L37.1003 156.28" stroke="#1F64FF" stroke-width="1.5" stroke-miterlimit="10" stroke-linecap="round" stroke-linejoin="round"/>
</svg>
